<svg width="570" height="320" xmlns="http://www.w3.org/2000/svg" preserveAspectRatio="xMidYMid meet">
 <metadata>Created by potrace 1.14, written by Peter Selinger 2001-2017</metadata>

 <g>
  <title>background</title>
  <rect fill="none" id="canvas_background" height="402" width="582" y="-1" x="-1"/>
 </g>
 <g>
  <title>Layer 1</title>
  <g id="svg_1" fill="#000000" transform="translate(0,320) scale(0.10000000149011612,-0.10000000149011612) ">
   <path id="svg_2" d="m960,2520c-75,-11 -217,-53 -275,-82c-181,-92 -340,-261 -421,-448c-56,-129 -68,-196 -68,-365c1,-132 4,-160 28,-238c64,-213 191,-383 375,-502c273,-176 632,-185 920,-22c88,50 227,177 283,260c64,94 118,220 140,326c26,123 20,307 -12,420c-74,262 -255,473 -494,581c-134,61 -333,90 -476,70zm295,-225c195,-51 345,-178 432,-363c50,-107 66,-194 60,-332c-7,-188 -68,-333 -193,-455c-260,-255 -699,-255 -958,0c-75,73 -125,154 -163,260c-25,73 -28,92 -28,225c0,125 3,154 23,214c104,310 359,487 682,471c47,-3 112,-12 145,-20z"/>
   <path id="svg_3" d="m970,2135c-86,-25 -141,-56 -200,-115c-100,-100 -141,-208 -141,-375c0,-167 40,-273 143,-376c196,-198 548,-179 692,36c26,38 66,137 66,162c0,2 -44,3 -97,3l-98,0l-25,-53c-61,-128 -238,-154 -358,-51c-26,22 -55,63 -79,111c-35,72 -38,81 -37,167c1,122 27,192 98,261c55,54 104,75 177,75c97,0 169,-42 204,-120l18,-40l98,0l98,0l-15,53c-32,110 -121,205 -232,248c-74,29 -232,36 -312,14z"/>
   <path id="svg_4" d="m4830,1760l0,-410l35,0l35,0l0,138c0,75 4,152 10,171c20,71 87,107 151,80c50,-20 59,-56 59,-234l0,-155l35,0l35,0l0,175c0,192 -7,225 -55,263c-54,42 -141,41 -194,-3c-16,-14 -32,-25 -35,-25c-3,0 -6,92 -6,205l0,205l-35,0l-35,0l0,-410z"/>
   <path id="svg_5" d="m5350,1896c0,-85 0,-86 -25,-86c-22,0 -25,-4 -25,-35c0,-31 3,-35 25,-35l25,0l0,-196l0,-195l38,3l37,3l3,193l2,192l40,0c39,0 40,1 40,35c0,34 -1,35 -40,35l-39,0l-3,83l-3,82l-37,3l-38,3l0,-85z"/>
   <path id="svg_6" d="m2181,1809c-193,-59 -231,-313 -64,-423c192,-126 433,60 358,275c-40,112 -180,183 -294,148zm139,-81c60,-31 90,-77 90,-140c0,-98 -53,-158 -145,-166c-101,-8 -166,47 -173,148c-6,82 31,143 103,168c47,16 77,14 125,-10z"/>
   <path id="svg_7" d="m2775,1809c-16,-7 -45,-22 -62,-36l-33,-24l0,30c0,29 -2,31 -40,31l-40,0l0,-361l0,-360l38,3l37,3l5,164l5,163l20,-22c90,-100 276,-58 336,75c25,54 25,157 0,210c-21,46 -62,90 -104,112c-38,19 -124,26 -162,12zm125,-81c56,-29 80,-74 80,-148c0,-65 -23,-110 -72,-141c-26,-16 -45,-19 -92,-16c-53,3 -62,7 -92,39c-82,90 -63,222 39,268c55,25 83,25 137,-2z"/>
   <path id="svg_8" d="m3776,1795c-44,-30 -46,-30 -46,-5c0,16 -7,20 -35,20l-35,0l0,-230l0,-230l34,0l33,0l5,158c4,121 9,165 22,190c21,40 60,58 95,42c13,-6 25,-9 26,-8c1,2 10,18 19,36c16,32 16,32 -9,42c-41,16 -69,12 -109,-15z"/>
   <path id="svg_9" d="m4359,1806c-58,-21 -93,-51 -124,-108c-51,-93 -36,-211 35,-286c75,-80 198,-88 284,-20l39,31l-5,-79c-8,-128 -46,-174 -145,-174c-73,0 -114,26 -138,88c-18,48 -23,52 -52,52c-30,0 -33,-3 -33,-30c0,-60 48,-128 115,-163c56,-29 155,-28 212,1c56,29 100,85 113,144c5,27 10,161 10,298l0,250l-40,0c-38,0 -40,-1 -40,-32c0,-29 -1,-30 -18,-15c-29,27 -105,57 -142,56c-19,0 -51,-6 -71,-13zm151,-78c57,-29 84,-76 84,-143c0,-168 -204,-229 -288,-85c-27,46 -27,124 0,170c21,38 92,80 134,80c14,0 46,-10 70,-22z"/>
   <path id="svg_10" d="m3196,1603l107,-206l-71,-144c-40,-79 -72,-148 -72,-154c0,-6 17,-9 42,-7l41,3l169,354c92,194 168,355 168,357c0,2 -19,4 -42,4l-43,0l-69,-153c-38,-83 -72,-156 -77,-161c-4,-5 -44,64 -88,153l-81,161l-45,0l-46,0l107,-207z"/>
   <path id="svg_11" d="m4010,1580l0,-230l35,0l35,0l0,230l0,230l-35,0l-35,0l0,-230z"/>
  </g>
  <text font-weight="bold" xml:space="preserve" text-anchor="start" font-family="Oswald, sans-serif" font-size="24" id="svg_12" y="282" x="133.890625" stroke-width="0" stroke="#000" fill="#000000">Fausto Carrión Arévalo - 2017</text>
 </g>
</svg>