<svg width="256" height="256" xmlns="http://www.w3.org/2000/svg" preserveAspectRatio="xMidYMid meet">
 <metadata>Created by potrace 1.14, written by Peter Selinger 2001-2017</metadata>

 <g>
  <title>background</title>
  <rect fill="none" id="canvas_background" height="402" width="582" y="-1" x="-1"/>
 </g>
 <g>
  <title>Layer 1</title>
  <g id="svg_1" fill="#000000" transform="translate(0,256) scale(0.10000000149011612,-0.10000000149011612) ">
   <path fill="#cccccc" id="svg_2" d="m367,2449c-97,-23 -184,-96 -233,-195l-29,-59l0,-915l0,-915l29,-59c37,-76 96,-135 172,-172l59,-29l915,0l915,0l59,29c76,37 135,96 172,172l29,59l0,915l0,915l-29,59c-37,76 -101,140 -174,174l-57,27l-895,2c-502,1 -912,-3 -933,-8zm1631,-390l2,-156l-115,-6c-63,-3 -124,-11 -135,-17c-32,-17 -40,-52 -40,-166l0,-104l146,0l146,0l-5,-22c-3,-13 -11,-85 -18,-160l-13,-138l-128,0l-128,0l0,-465l0,-465l-190,0l-190,0l0,465l0,465l-95,0l-95,0l0,160l0,160l94,0l94,0l4,168c5,193 22,254 90,328c80,87 177,113 413,111l160,-2l3,-156z"/>
  </g>
 </g>
</svg>