<?xml version="1.0" standalone="no"?>
<!DOCTYPE svg PUBLIC "-//W3C//DTD SVG 20010904//EN"
 "http://www.w3.org/TR/2001/REC-SVG-20010904/DTD/svg10.dtd">
<svg version="1.0" xmlns="http://www.w3.org/2000/svg"
 width="100.000000pt" height="100.000000pt" viewBox="0 0 100.000000 100.000000"
 preserveAspectRatio="xMidYMid meet">
<metadata>
Created by potrace 1.14, written by Peter Selinger 2001-2017
</metadata>
<g transform="translate(0.000000,100.000000) scale(0.100000,-0.100000)"
fill="#000000" stroke="none">
<path d="M207 984 c-4 -4 -7 -58 -7 -121 0 -94 -3 -113 -15 -113 -12 0 -15 19
-15 115 0 96 -3 115 -15 115 -12 0 -15 -20 -15 -116 0 -105 -2 -115 -17 -112
-15 3 -19 18 -23 101 l-5 99 -21 -24 c-43 -47 -54 -83 -54 -179 l0 -91 153 4
c144 4 154 5 192 30 88 58 183 57 276 -3 l47 -30 148 3 149 3 0 80 c0 100 -7
126 -48 171 -61 70 -77 74 -389 74 l-278 0 0 -120 c0 -99 -3 -120 -15 -120
-12 0 -15 22 -17 117 -3 108 -11 137 -31 117z m678 -164 l0 -75 -70 0 -70 0
-3 64 c-4 92 -4 92 75 89 l68 -3 0 -75z"/>
<path d="M437 675 c-128 -45 -170 -211 -79 -309 31 -33 96 -65 132 -66 74 0
160 53 186 117 18 42 18 127 0 162 -31 60 -116 112 -181 111 -11 -1 -37 -7
-58 -15z m134 -68 c75 -50 86 -137 26 -204 -82 -89 -227 -30 -227 92 0 106
115 170 201 112z"/>
<path d="M20 401 c0 -254 3 -277 48 -325 60 -63 73 -66 432 -66 296 0 329 2
365 19 53 24 83 55 106 105 16 36 19 68 19 274 l0 232 -145 0 c-80 0 -145 -2
-145 -3 0 -2 8 -19 17 -38 28 -55 29 -149 4 -203 -50 -102 -163 -160 -268
-136 -148 33 -233 195 -173 329 11 24 20 45 20 47 0 2 -63 4 -140 4 l-140 0 0
-239z"/>
</g>
</svg>
