<svg width="100" height="100" xmlns="http://www.w3.org/2000/svg" preserveAspectRatio="xMidYMid meet">
 <metadata>Created by potrace 1.14, written by Peter Selinger 2001-2017</metadata>

 <g>
  <title>background</title>
  <rect fill="none" id="canvas_background" height="402" width="582" y="-1" x="-1"/>
 </g>
 <g>
  <title>Layer 1</title>
  <g id="svg_1" fill="#000000" transform="translate(0,100) scale(0.10000000149011612,-0.10000000149011612) ">
   <path fill="#cccccc" id="svg_2" d="m207,984c-4,-4 -7,-58 -7,-121c0,-94 -3,-113 -15,-113c-12,0 -15,19 -15,115c0,96 -3,115 -15,115c-12,0 -15,-20 -15,-116c0,-105 -2,-115 -17,-112c-15,3 -19,18 -23,101l-5,99l-21,-24c-43,-47 -54,-83 -54,-179l0,-91l153,4c144,4 154,5 192,30c88,58 183,57 276,-3l47,-30l148,3l149,3l0,80c0,100 -7,126 -48,171c-61,70 -77,74 -389,74l-278,0l0,-120c0,-99 -3,-120 -15,-120c-12,0 -15,22 -17,117c-3,108 -11,137 -31,117zm678,-164l0,-75l-70,0l-70,0l-3,64c-4,92 -4,92 75,89l68,-3l0,-75z"/>
   <path fill="#cccccc" id="svg_3" d="m437,675c-128,-45 -170,-211 -79,-309c31,-33 96,-65 132,-66c74,0 160,53 186,117c18,42 18,127 0,162c-31,60 -116,112 -181,111c-11,-1 -37,-7 -58,-15zm134,-68c75,-50 86,-137 26,-204c-82,-89 -227,-30 -227,92c0,106 115,170 201,112z"/>
   <path fill="#cccccc" id="svg_4" d="m20,401c0,-254 3,-277 48,-325c60,-63 73,-66 432,-66c296,0 329,2 365,19c53,24 83,55 106,105c16,36 19,68 19,274l0,232l-145,0c-80,0 -145,-2 -145,-3c0,-2 8,-19 17,-38c28,-55 29,-149 4,-203c-50,-102 -163,-160 -268,-136c-148,33 -233,195 -173,329c11,24 20,45 20,47c0,2 -63,4 -140,4l-140,0l0,-239z"/>
  </g>
 </g>
</svg>