<svg width="450" height="599" xmlns="http://www.w3.org/2000/svg" preserveAspectRatio="xMidYMid meet">
 <metadata>Created by potrace 1.14, written by Peter Selinger 2001-2017</metadata>

 <g>
  <title>background</title>
  <rect fill="none" id="canvas_background" height="402" width="582" y="-1" x="-1"/>
 </g>
 <g>
  <title>Layer 1</title>
  <g id="svg_1" fill="#000000" transform="translate(0,599) scale(0.10000000149011612,-0.10000000149011612) ">
   <path fill="#cccccc" id="svg_2" d="m805,5764c-38,-8 -112,-35 -163,-60c-74,-36 -107,-59 -170,-122c-120,-121 -181,-241 -202,-404c-8,-58 -10,-548 -7,-1648c3,-1698 1,-1618 58,-1863c178,-762 780,-1298 1576,-1402c174,-23 1669,-22 1781,1c154,32 264,94 374,213c113,122 166,250 175,421c6,127 -12,223 -60,325c-86,177 -223,299 -412,363l-80,27l-835,5l-835,5l-60,24c-152,61 -218,130 -278,290c-20,52 -21,80 -25,419l-3,364l63,-6c35,-3 511,-7 1058,-8l995,-3l70,23c102,34 200,96 280,176c131,133 186,260 193,451c5,144 -8,210 -70,335c-58,120 -178,240 -298,298c-154,75 -138,74 -780,82c-316,5 -785,9 -1042,9l-468,1l0,488c-1,520 -7,644 -40,744c-68,202 -237,367 -445,434c-102,33 -249,41 -350,18z"/>
  </g>
 </g>
</svg>