<?xml version="1.0" standalone="no"?>
<!DOCTYPE svg PUBLIC "-//W3C//DTD SVG 20010904//EN"
 "http://www.w3.org/TR/2001/REC-SVG-20010904/DTD/svg10.dtd">
<svg version="1.0" xmlns="http://www.w3.org/2000/svg"
 width="450.000000pt" height="599.000000pt" viewBox="0 0 450.000000 599.000000"
 preserveAspectRatio="xMidYMid meet">
<metadata>
Created by potrace 1.14, written by Peter Selinger 2001-2017
</metadata>
<g transform="translate(0.000000,599.000000) scale(0.100000,-0.100000)"
fill="#000000" stroke="none">
<path d="M805 5764 c-38 -8 -112 -35 -163 -60 -74 -36 -107 -59 -170 -122
-120 -121 -181 -241 -202 -404 -8 -58 -10 -548 -7 -1648 3 -1698 1 -1618 58
-1863 178 -762 780 -1298 1576 -1402 174 -23 1669 -22 1781 1 154 32 264 94
374 213 113 122 166 250 175 421 6 127 -12 223 -60 325 -86 177 -223 299 -412
363 l-80 27 -835 5 -835 5 -60 24 c-152 61 -218 130 -278 290 -20 52 -21 80
-25 419 l-3 364 63 -6 c35 -3 511 -7 1058 -8 l995 -3 70 23 c102 34 200 96
280 176 131 133 186 260 193 451 5 144 -8 210 -70 335 -58 120 -178 240 -298
298 -154 75 -138 74 -780 82 -316 5 -785 9 -1042 9 l-468 1 0 488 c-1 520 -7
644 -40 744 -68 202 -237 367 -445 434 -102 33 -249 41 -350 18z"/>
</g>
</svg>
